<mxfile host="app.diagrams.net" modified="2024-10-01T12:53:54.061Z" agent="Mozilla/5.0 (Windows NT 10.0; Win64; x64) AppleWebKit/537.36 (KHTML, like Gecko) Chrome/129.0.0.0 Safari/537.36" etag="66bbdJnnEjl490Um1vfv" version="24.5.2" type="device">
  <diagram name="페이지-1" id="cd9etJqTG90hnqmp2p7v">
    <mxGraphModel dx="1887" dy="877" grid="1" gridSize="10" guides="1" tooltips="1" connect="1" arrows="1" fold="1" page="1" pageScale="1" pageWidth="827" pageHeight="1169" math="0" shadow="0">
      <root>
        <mxCell id="0" />
        <mxCell id="1" parent="0" />
        <UserObject label="" plantUmlData="{&quot;data&quot;:&quot;@startuml\nleft to right direction\n\nactor 사용자\nactor 거래소API as \&quot;가상화폐 거래소 API\&quot;\n\nrectangle \&quot;자동매매 시스템\&quot; {\n    사용자 ---&gt; (로그인)\n    사용자 --&gt; (거래 전략 설정)\n    사용자 --&gt; (자동 거래 시작/중지)\n    사용자 --&gt; (실시간 데이터 모니터링)\n    사용자 --&gt; (거래 내역 확인)\n\n    (거래 전략 설정) --&gt; (ML 모델 사용하여 가격 예측)\n    (자동 거래 시작/중지) --&gt; (거래 실행)\n    (자동 거래 시작/중지) --&gt; (ML 모델 재학습) : 매 24시간마다\n\n    (실시간 데이터 모니터링) --&gt; (시장 데이터 가져오기)\n    (ML 모델 사용하여 가격 예측) --&gt; (시장 데이터 가져오기)\n    (거래 실행) --&gt; (시장 데이터 가져오기)\n\n    거래소API --&gt; (시장 데이터 가져오기)\n    거래소API --&gt; (거래 실행)\n}\n\n@enduml\n&quot;,&quot;format&quot;:&quot;svg&quot;}" id="u1UqXsZkCZ2_rxU7cBuJ-1">
          <mxCell style="shape=image;noLabel=1;verticalAlign=top;aspect=fixed;imageAspect=0;image=data:image/svg+xml,PD94bWwgdmVyc2lvbj0iMS4wIiBlbmNvZGluZz0idXMtYXNjaWkiIHN0YW5kYWxvbmU9Im5vIj8+PHN2ZyB4bWxucz0iaHR0cDovL3d3dy53My5vcmcvMjAwMC9zdmciIHhtbG5zOnhsaW5rPSJodHRwOi8vd3d3LnczLm9yZy8xOTk5L3hsaW5rIiBjb250ZW50U3R5bGVUeXBlPSJ0ZXh0L2NzcyIgaGVpZ2h0PSI0NjZweCIgcHJlc2VydmVBc3BlY3RSYXRpbz0ibm9uZSIgc3R5bGU9IndpZHRoOjk2MnB4O2hlaWdodDo0NjZweDtiYWNrZ3JvdW5kOiNGRkZGRkY7IiB2ZXJzaW9uPSIxLjEiIHZpZXdCb3g9IjAgMCA5NjIgNDY2IiB3aWR0aD0iOTYycHgiIHpvb21BbmRQYW49Im1hZ25pZnkiPjxkZWZzLz48Zz48IS0tY2x1c3RlciA/Pz8/ID8/Py0tPjxnIGlkPSJjbHVzdGVyXyYjNTEwODg7JiM0NjA0MTsmIzQ3NTg4OyYjNDc1ODg7ICYjNDk4ODQ7JiM0OTgyODsmIzUzNTk2OyI+PHJlY3QgZmlsbD0ibm9uZSIgaGVpZ2h0PSIzMDYiIHJ4PSIyLjUiIHJ5PSIyLjUiIHN0eWxlPSJzdHJva2U6IzE4MTgxODtzdHJva2Utd2lkdGg6MS4wOyIgd2lkdGg9Ijc5OSIgeD0iMTU3IiB5PSI3Ii8+PHRleHQgZmlsbD0iIzAwMDAwMCIgZm9udC1mYW1pbHk9InNhbnMtc2VyaWYiIGZvbnQtc2l6ZT0iMTQiIGZvbnQtd2VpZ2h0PSJib2xkIiBsZW5ndGhBZGp1c3Q9InNwYWNpbmciIHRleHRMZW5ndGg9IjEwNSIgeD0iNTA0IiB5PSIyMi4yMzQ0Ij4mIzUxMDg4OyYjNDYwNDE7JiM0NzU4ODsmIzQ3NTg4OyAmIzQ5ODg0OyYjNDk4Mjg7JiM1MzU5Njs8L3RleHQ+PC9nPjxnIGlkPSJlbGVtXyYjNDcxOTY7JiM0NDUzNjsmIzUxMDY0OyI+PGVsbGlwc2UgY3g9IjI1Ny42ODM4IiBjeT0iMTIyLjA5NTYiIGZpbGw9IiNGMUYxRjEiIHJ4PSI0MS4xODM4IiByeT0iMTMuNTk1NiIgc3R5bGU9InN0cm9rZTojMTgxODE4O3N0cm9rZS13aWR0aDowLjU7Ii8+PHRleHQgZmlsbD0iIzAwMDAwMCIgZm9udC1mYW1pbHk9InNhbnMtc2VyaWYiIGZvbnQtc2l6ZT0iMTQiIGxlbmd0aEFkanVzdD0ic3BhY2luZyIgdGV4dExlbmd0aD0iNDIiIHg9IjIzNi42ODM4IiB5PSIxMjUuODM3NyI+JiM0NzE5NjsmIzQ0NTM2OyYjNTEwNjQ7PC90ZXh0PjwvZz48ZyBpZD0iZWxlbV8mIzQ0MTQ0OyYjNDcwMDA7ICYjNTEyMDQ7JiM0NzAyOTsgJiM0OTQ0NDsmIzUxMjIxOyI+PGVsbGlwc2UgY3g9IjI1Ny41NDU2IiBjeT0iMTg2LjgwOTEiIGZpbGw9IiNGMUYxRjEiIHJ4PSI2OS41NDU2IiByeT0iMTYuMzA5MSIgc3R5bGU9InN0cm9rZTojMTgxODE4O3N0cm9rZS13aWR0aDowLjU7Ii8+PHRleHQgZmlsbD0iIzAwMDAwMCIgZm9udC1mYW1pbHk9InNhbnMtc2VyaWYiIGZvbnQtc2l6ZT0iMTQiIGxlbmd0aEFkanVzdD0ic3BhY2luZyIgdGV4dExlbmd0aD0iOTgiIHg9IjIwOC41NDU2IiB5PSIxOTAuNTUxMyI+JiM0NDE0NDsmIzQ3MDAwOyAmIzUxMjA0OyYjNDcwMjk7ICYjNDk0NDQ7JiM1MTIyMTs8L3RleHQ+PC9nPjxnIGlkPSJlbGVtXyYjNTEwODg7JiM0NjA0MTsgJiM0NDE0NDsmIzQ3MDAwOyAmIzQ5ODg0OyYjNTEwODk7LyYjNTE0NzM7JiM1MTY0ODsiPjxlbGxpcHNlIGN4PSIyNTcuNjA2MiIgY3k9IjI1Ny44MjEyIiBmaWxsPSIjRjFGMUYxIiByeD0iODQuNjA2MiIgcnk9IjE5LjMyMTIiIHN0eWxlPSJzdHJva2U6IzE4MTgxODtzdHJva2Utd2lkdGg6MC41OyIvPjx0ZXh0IGZpbGw9IiMwMDAwMDAiIGZvbnQtZmFtaWx5PSJzYW5zLXNlcmlmIiBmb250LXNpemU9IjE0IiBsZW5ndGhBZGp1c3Q9InNwYWNpbmciIHRleHRMZW5ndGg9IjEzMyIgeD0iMTkxLjEwNjIiIHk9IjI2MS41NjM0Ij4mIzUxMDg4OyYjNDYwNDE7ICYjNDQxNDQ7JiM0NzAwMDsgJiM0OTg4NDsmIzUxMDg5Oy8mIzUxNDczOyYjNTE2NDg7PC90ZXh0PjwvZz48ZyBpZD0iZWxlbV8mIzQ5ODkyOyYjNDk4ODQ7JiM0NDAzNjsgJiM0NTkzNjsmIzUxMDYwOyYjNTM1NTI7ICYjNDc3ODQ7JiM0NTc2ODsmIzUzNTUyOyYjNDc1NTM7Ij48ZWxsaXBzZSBjeD0iNTk3LjA2MjIiIGN5PSIyMTMuMjEyNCIgZmlsbD0iI0YxRjFGMSIgcng9Ijk0LjA2MjIiIHJ5PSIyMS4yMTI0IiBzdHlsZT0ic3Ryb2tlOiMxODE4MTg7c3Ryb2tlLXdpZHRoOjAuNTsiLz48dGV4dCBmaWxsPSIjMDAwMDAwIiBmb250LWZhbWlseT0ic2Fucy1zZXJpZiIgZm9udC1zaXplPSIxNCIgbGVuZ3RoQWRqdXN0PSJzcGFjaW5nIiB0ZXh0TGVuZ3RoPSIxNTQiIHg9IjUyMC4wNjIyIiB5PSIyMTYuOTU0NiI+JiM0OTg5MjsmIzQ5ODg0OyYjNDQwMzY7ICYjNDU5MzY7JiM1MTA2MDsmIzUzNTUyOyAmIzQ3Nzg0OyYjNDU3Njg7JiM1MzU1MjsmIzQ3NTUzOzwvdGV4dD48L2c+PGcgaWQ9ImVsZW1fJiM0NDE0NDsmIzQ3MDAwOyAmIzQ1MjM2OyYjNTA2Njk7ICYjNTQ4Njk7JiM1MTA2NDsiPjxlbGxpcHNlIGN4PSIyNTcuNTQ1NiIgY3k9IjU2LjgwOTEiIGZpbGw9IiNGMUYxRjEiIHJ4PSI2OS41NDU2IiByeT0iMTYuMzA5MSIgc3R5bGU9InN0cm9rZTojMTgxODE4O3N0cm9rZS13aWR0aDowLjU7Ii8+PHRleHQgZmlsbD0iIzAwMDAwMCIgZm9udC1mYW1pbHk9InNhbnMtc2VyaWYiIGZvbnQtc2l6ZT0iMTQiIGxlbmd0aEFkanVzdD0ic3BhY2luZyIgdGV4dExlbmd0aD0iOTgiIHg9IjIwOC41NDU2IiB5PSI2MC41NTEzIj4mIzQ0MTQ0OyYjNDcwMDA7ICYjNDUyMzY7JiM1MDY2OTsgJiM1NDg2OTsmIzUxMDY0OzwvdGV4dD48L2c+PGcgaWQ9ImVsZW1fTUwgJiM0Nzc4NDsmIzQ1OTQ0OyAmIzQ5MzI0OyYjNTA4NTc7JiM1NDYxNjsmIzUwNjY4OyAmIzQ0MDMyOyYjNDQyMDE7ICYjNTA2OTY7JiM1Mjc2OTsiPjxlbGxpcHNlIGN4PSI1OTYuOTgyMyIgY3k9IjYzLjc5NjUiIGZpbGw9IiNGMUYxRjEiIHJ4PSIxMDYuOTgyMyIgcnk9IjIzLjc5NjUiIHN0eWxlPSJzdHJva2U6IzE4MTgxODtzdHJva2Utd2lkdGg6MC41OyIvPjx0ZXh0IGZpbGw9IiMwMDAwMDAiIGZvbnQtZmFtaWx5PSJzYW5zLXNlcmlmIiBmb250LXNpemU9IjE0IiBsZW5ndGhBZGp1c3Q9InNwYWNpbmciIHRleHRMZW5ndGg9IjE4MiIgeD0iNTA1Ljk4MjMiIHk9IjY3LjUzODciPk1MICYjNDc3ODQ7JiM0NTk0NDsgJiM0OTMyNDsmIzUwODU3OyYjNTQ2MTY7JiM1MDY2ODsgJiM0NDAzMjsmIzQ0MjAxOyAmIzUwNjk2OyYjNTI3Njk7PC90ZXh0PjwvZz48ZyBpZD0iZWxlbV8mIzQ0MTQ0OyYjNDcwMDA7ICYjNDk4OTI7JiM1NDY2NTsiPjxlbGxpcHNlIGN4PSI1OTcuMDA1NCIgY3k9IjI4My4xMDExIiBmaWxsPSIjRjFGMUYxIiByeD0iNTYuMDA1NCIgcnk9IjEzLjYwMTEiIHN0eWxlPSJzdHJva2U6IzE4MTgxODtzdHJva2Utd2lkdGg6MC41OyIvPjx0ZXh0IGZpbGw9IiMwMDAwMDAiIGZvbnQtZmFtaWx5PSJzYW5zLXNlcmlmIiBmb250LXNpemU9IjE0IiBsZW5ndGhBZGp1c3Q9InNwYWNpbmciIHRleHRMZW5ndGg9IjYzIiB4PSI1NjUuNTA1NCIgeT0iMjg2Ljg0MzMiPiYjNDQxNDQ7JiM0NzAwMDsgJiM0OTg5MjsmIzU0NjY1OzwvdGV4dD48L2c+PGcgaWQ9ImVsZW1fTUwgJiM0Nzc4NDsmIzQ1OTQ0OyAmIzUxMTE2OyYjNTQ2MTc7JiM0OTg0NTsiPjxlbGxpcHNlIGN4PSI1OTcuMDQ1NiIgY3k9IjEzOS44MDkxIiBmaWxsPSIjRjFGMUYxIiByeD0iNjkuNTQ1NiIgcnk9IjE2LjMwOTEiIHN0eWxlPSJzdHJva2U6IzE4MTgxODtzdHJva2Utd2lkdGg6MC41OyIvPjx0ZXh0IGZpbGw9IiMwMDAwMDAiIGZvbnQtZmFtaWx5PSJzYW5zLXNlcmlmIiBmb250LXNpemU9IjE0IiBsZW5ndGhBZGp1c3Q9InNwYWNpbmciIHRleHRMZW5ndGg9Ijk4IiB4PSI1NDguMDQ1NiIgeT0iMTQzLjU1MTMiPk1MICYjNDc3ODQ7JiM0NTk0NDsgJiM1MTExNjsmIzU0NjE3OyYjNDk4NDU7PC90ZXh0PjwvZz48ZyBpZD0iZWxlbV8mIzQ5ODg0OyYjNTExMDk7ICYjNDU5MzY7JiM1MTA2MDsmIzUzNTUyOyAmIzQ0MDMyOyYjNTEyNTY7JiM1MDcyNDsmIzQ0NTkyOyI+PGVsbGlwc2UgY3g9Ijg1Mi43MzA5IiBjeT0iMjQ0Ljk0NjIiIGZpbGw9IiNGMUYxRjEiIHJ4PSI4Ny43MzA5IiByeT0iMTkuOTQ2MiIgc3R5bGU9InN0cm9rZTojMTgxODE4O3N0cm9rZS13aWR0aDowLjU7Ii8+PHRleHQgZmlsbD0iIzAwMDAwMCIgZm9udC1mYW1pbHk9InNhbnMtc2VyaWYiIGZvbnQtc2l6ZT0iMTQiIGxlbmd0aEFkanVzdD0ic3BhY2luZyIgdGV4dExlbmd0aD0iMTQwIiB4PSI3ODIuNzMwOSIgeT0iMjQ4LjY4ODQiPiYjNDk4ODQ7JiM1MTEwOTsgJiM0NTkzNjsmIzUxMDYwOyYjNTM1NTI7ICYjNDQwMzI7JiM1MTI1NjsmIzUwNzI0OyYjNDQ1OTI7PC90ZXh0PjwvZz48IS0tZW50aXR5ID8/Py0tPjxnIGlkPSJlbGVtXyYjNDkzMjQ7JiM1MDg1NzsmIzUxMDg4OyI+PGVsbGlwc2UgY3g9IjI3IiBjeT0iMTYwIiBmaWxsPSIjRjFGMUYxIiByeD0iOCIgcnk9IjgiIHN0eWxlPSJzdHJva2U6IzE4MTgxODtzdHJva2Utd2lkdGg6MC41OyIvPjxwYXRoIGQ9Ik0yNywxNjggTDI3LDE5NSBNMTQsMTc2IEw0MCwxNzYgTTI3LDE5NSBMMTQsMjEwIE0yNywxOTUgTDQwLDIxMCAiIGZpbGw9Im5vbmUiIHN0eWxlPSJzdHJva2U6IzE4MTgxODtzdHJva2Utd2lkdGg6MC41OyIvPjx0ZXh0IGZpbGw9IiMwMDAwMDAiIGZvbnQtZmFtaWx5PSJzYW5zLXNlcmlmIiBmb250LXNpemU9IjE0IiBsZW5ndGhBZGp1c3Q9InNwYWNpbmciIHRleHRMZW5ndGg9IjQyIiB4PSI2IiB5PSIyMjQuNzM0NCI+JiM0OTMyNDsmIzUwODU3OyYjNTEwODg7PC90ZXh0PjwvZz48IS0tZW50aXR5ID8/P0FQSS0tPjxnIGlkPSJlbGVtXyYjNDQxNDQ7JiM0NzAwMDsmIzQ5NTQ4O0FQSSI+PGVsbGlwc2UgY3g9IjI1Ny41IiBjeT0iMzkzIiBmaWxsPSIjRjFGMUYxIiByeD0iOCIgcnk9IjgiIHN0eWxlPSJzdHJva2U6IzE4MTgxODtzdHJva2Utd2lkdGg6MC41OyIvPjxwYXRoIGQ9Ik0yNTcuNSw0MDEgTDI1Ny41LDQyOCBNMjQ0LjUsNDA5IEwyNzAuNSw0MDkgTTI1Ny41LDQyOCBMMjQ0LjUsNDQzIE0yNTcuNSw0MjggTDI3MC41LDQ0MyAiIGZpbGw9Im5vbmUiIHN0eWxlPSJzdHJva2U6IzE4MTgxODtzdHJva2Utd2lkdGg6MC41OyIvPjx0ZXh0IGZpbGw9IiMwMDAwMDAiIGZvbnQtZmFtaWx5PSJzYW5zLXNlcmlmIiBmb250LXNpemU9IjE0IiBsZW5ndGhBZGp1c3Q9InNwYWNpbmciIHRleHRMZW5ndGg9IjEzMyIgeD0iMTkxIiB5PSI0NTcuNzM0NCI+JiM0NDAzMjsmIzQ5MzQ1OyYjNTQ4Njg7JiM1NDIyNDsgJiM0NDE0NDsmIzQ3MDAwOyYjNDk1NDg7IEFQSTwvdGV4dD48L2c+PCEtLWxpbmsgPz8/IHRvID8/Py0tPjxnIGlkPSJsaW5rXyYjNDkzMjQ7JiM1MDg1NzsmIzUxMDg4O18mIzQ3MTk2OyYjNDQ1MzY7JiM1MTA2NDsiPjxwYXRoIGQ9Ik00OC4zOCwxNzYuOSBDNTcuMjUsMTcyLjA0IDY3LjksMTY2LjcyIDc4LDE2MyBDMTI1LjU5LDE0NS40OCAxNzcuMjU1NywxMzQuODkwMiAyMTMuOTA1NywxMjguNjMwMiAiIGZpbGw9Im5vbmUiIGlkPSImIzQ5MzI0OyYjNTA4NTc7JiM1MTA4ODstdG8tJiM0NzE5NjsmIzQ0NTM2OyYjNTEwNjQ7IiBzdHlsZT0ic3Ryb2tlOiMxODE4MTg7c3Ryb2tlLXdpZHRoOjEuMDsiLz48cG9seWdvbiBmaWxsPSIjMTgxODE4IiBwb2ludHM9IjIxOS44MiwxMjcuNjIsMjEwLjI3NSwxMjUuMTkyNCwyMTQuODkxNCwxMjguNDYxOCwyMTEuNjIxOSwxMzMuMDc4MiwyMTkuODIsMTI3LjYyIiBzdHlsZT0ic3Ryb2tlOiMxODE4MTg7c3Ryb2tlLXdpZHRoOjEuMDsiLz48L2c+PCEtLWxpbmsgPz8/IHRvID8/ID8/ID8/LS0+PGcgaWQ9ImxpbmtfJiM0OTMyNDsmIzUwODU3OyYjNTEwODg7XyYjNDQxNDQ7JiM0NzAwMDsgJiM1MTIwNDsmIzQ3MDI5OyAmIzQ5NDQ0OyYjNTEyMjE7Ij48cGF0aCBkPSJNNDguMjgsMTg4LjgyIEM3OS4zLDE4OC41NSAxMzMuOTcwMiwxODguMDcyNiAxODEuODYwMiwxODcuNjUyNiAiIGZpbGw9Im5vbmUiIGlkPSImIzQ5MzI0OyYjNTA4NTc7JiM1MTA4ODstdG8tJiM0NDE0NDsmIzQ3MDAwOyAmIzUxMjA0OyYjNDcwMjk7ICYjNDk0NDQ7JiM1MTIyMTsiIHN0eWxlPSJzdHJva2U6IzE4MTgxODtzdHJva2Utd2lkdGg6MS4wOyIvPjxwb2x5Z29uIGZpbGw9IiMxODE4MTgiIHBvaW50cz0iMTg3Ljg2LDE4Ny42LDE3OC44MjUzLDE4My42NzkxLDE4Mi44NjAyLDE4Ny42NDM4LDE3OC44OTU0LDE5MS42Nzg4LDE4Ny44NiwxODcuNiIgc3R5bGU9InN0cm9rZTojMTgxODE4O3N0cm9rZS13aWR0aDoxLjA7Ii8+PC9nPjwhLS1saW5rID8/PyB0byA/PyA/PyA/Py8/Py0tPjxnIGlkPSJsaW5rXyYjNDkzMjQ7JiM1MDg1NzsmIzUxMDg4O18mIzUxMDg4OyYjNDYwNDE7ICYjNDQxNDQ7JiM0NzAwMDsgJiM0OTg4NDsmIzUxMDg5Oy8mIzUxNDczOyYjNTE2NDg7Ij48cGF0aCBkPSJNNDguMjgsMTk1LjEyIEM4My4yMywyMDUuNjggMTUwLjA4NjMsMjI1Ljg2NTIgMTk5LjYxNjMsMjQwLjgyNTIgIiBmaWxsPSJub25lIiBpZD0iJiM0OTMyNDsmIzUwODU3OyYjNTEwODg7LXRvLSYjNTEwODg7JiM0NjA0MTsgJiM0NDE0NDsmIzQ3MDAwOyAmIzQ5ODg0OyYjNTEwODk7LyYjNTE0NzM7JiM1MTY0ODsiIHN0eWxlPSJzdHJva2U6IzE4MTgxODtzdHJva2Utd2lkdGg6MS4wOyIvPjxwb2x5Z29uIGZpbGw9IiMxODE4MTgiIHBvaW50cz0iMjA1LjM2LDI0Mi41NiwxOTcuOTAxLDIzNi4xMjg2LDIwMC41NzM2LDI0MS4xMTQzLDE5NS41ODc5LDI0My43ODY5LDIwNS4zNiwyNDIuNTYiIHN0eWxlPSJzdHJva2U6IzE4MTgxODtzdHJva2Utd2lkdGg6MS4wOyIvPjwvZz48IS0tbGluayA/Pz8gdG8gPz8/ID8/PyA/Pz8/LS0+PGcgaWQ9ImxpbmtfJiM0OTMyNDsmIzUwODU3OyYjNTEwODg7XyYjNDk4OTI7JiM0OTg4NDsmIzQ0MDM2OyAmIzQ1OTM2OyYjNTEwNjA7JiM1MzU1MjsgJiM0Nzc4NDsmIzQ1NzY4OyYjNTM1NTI7JiM0NzU1MzsiPjxwYXRoIGQ9Ik00OC4yMywyMTUuNDIgQzY5LjkxLDI0MS4zMyAxMDYuOTEsMjc5LjE3IDE0OSwyOTUgQzIyOS4yOSwzMjUuMTkgMjU3LjI3LDMwOC4zNCAzNDIsMjk1IEMzODEuODgsMjg4LjcyIDQ3OS41MDE4LDI1NS4wMjQyIDU0MS4zOTE4LDIzMi44NDQyICIgZmlsbD0ibm9uZSIgaWQ9IiYjNDkzMjQ7JiM1MDg1NzsmIzUxMDg4Oy10by0mIzQ5ODkyOyYjNDk4ODQ7JiM0NDAzNjsgJiM0NTkzNjsmIzUxMDYwOyYjNTM1NTI7ICYjNDc3ODQ7JiM0NTc2ODsmIzUzNTUyOyYjNDc1NTM7IiBzdHlsZT0ic3Ryb2tlOiMxODE4MTg7c3Ryb2tlLXdpZHRoOjEuMDsiLz48cG9seWdvbiBmaWxsPSIjMTgxODE4IiBwb2ludHM9IjU0Ny4wNCwyMzAuODIsNTM3LjIxODIsMjMwLjA5MDgsNTQyLjMzMzEsMjMyLjUwNjgsNTM5LjkxNzEsMjM3LjYyMTgsNTQ3LjA0LDIzMC44MiIgc3R5bGU9InN0cm9rZTojMTgxODE4O3N0cm9rZS13aWR0aDoxLjA7Ii8+PC9nPjwhLS1saW5rID8/PyB0byA/PyA/PyA/Py0tPjxnIGlkPSJsaW5rXyYjNDkzMjQ7JiM1MDg1NzsmIzUxMDg4O18mIzQ0MTQ0OyYjNDcwMDA7ICYjNDUyMzY7JiM1MDY2OTsgJiM1NDg2OTsmIzUxMDY0OyI+PHBhdGggZD0iTTQ4LjExLDE2NS44NSBDNTYuODQsMTU2LjQxIDY3LjQ3LDE0NS42OSA3OCwxMzcgQzEwNywxMTMuMDcgMTE0Ljk5LDEwNy4wNCAxNDksOTEgQzE2OC4wMyw4Mi4wMyAxODQuMjgxOSw3Ni4yNzY1IDIwMy40MDE5LDcwLjY3NjUgIiBmaWxsPSJub25lIiBpZD0iJiM0OTMyNDsmIzUwODU3OyYjNTEwODg7LXRvLSYjNDQxNDQ7JiM0NzAwMDsgJiM0NTIzNjsmIzUwNjY5OyAmIzU0ODY5OyYjNTEwNjQ7IiBzdHlsZT0ic3Ryb2tlOiMxODE4MTg7c3Ryb2tlLXdpZHRoOjEuMDsiLz48cG9seWdvbiBmaWxsPSIjMTgxODE4IiBwb2ludHM9IjIwOS4xNiw2OC45OSwxOTkuMzk4NSw2Ny42ODEsMjA0LjM2MTYsNzAuMzk1NCwyMDEuNjQ3Miw3NS4zNTg1LDIwOS4xNiw2OC45OSIgc3R5bGU9InN0cm9rZTojMTgxODE4O3N0cm9rZS13aWR0aDoxLjA7Ii8+PC9nPjwhLS1saW5rID8/ID8/ID8/IHRvIE1MID8/ID8/Pz8gPz8gPz8tLT48ZyBpZD0ibGlua18mIzQ0MTQ0OyYjNDcwMDA7ICYjNTEyMDQ7JiM0NzAyOTsgJiM0OTQ0NDsmIzUxMjIxO19NTCAmIzQ3Nzg0OyYjNDU5NDQ7ICYjNDkzMjQ7JiM1MDg1NzsmIzU0NjE2OyYjNTA2Njg7ICYjNDQwMzI7JiM0NDIwMTsgJiM1MDY5NjsmIzUyNzY5OyI+PHBhdGggZD0iTTI5Ni4yMywxNzMuMjUgQzM1NS41OCwxNTEuNjIgNDY1LjQxMjksMTExLjU5NDkgNTM0LjQzMjksODYuNDM0OSAiIGZpbGw9Im5vbmUiIGlkPSImIzQ0MTQ0OyYjNDcwMDA7ICYjNTEyMDQ7JiM0NzAyOTsgJiM0OTQ0NDsmIzUxMjIxOy10by1NTCAmIzQ3Nzg0OyYjNDU5NDQ7ICYjNDkzMjQ7JiM1MDg1NzsmIzU0NjE2OyYjNTA2Njg7ICYjNDQwMzI7JiM0NDIwMTsgJiM1MDY5NjsmIzUyNzY5OyIgc3R5bGU9InN0cm9rZTojMTgxODE4O3N0cm9rZS13aWR0aDoxLjA7Ii8+PHBvbHlnb24gZmlsbD0iIzE4MTgxOCIgcG9pbnRzPSI1NDAuMDcsODQuMzgsNTMwLjI0NDMsODMuNzA0Myw1MzUuMzcyNCw4Ni4wOTI0LDUzMi45ODQyLDkxLjIyMDUsNTQwLjA3LDg0LjM4IiBzdHlsZT0ic3Ryb2tlOiMxODE4MTg7c3Ryb2tlLXdpZHRoOjEuMDsiLz48L2c+PCEtLWxpbmsgPz8gPz8gPz8vPz8gdG8gPz8gPz8tLT48ZyBpZD0ibGlua18mIzUxMDg4OyYjNDYwNDE7ICYjNDQxNDQ7JiM0NzAwMDsgJiM0OTg4NDsmIzUxMDg5Oy8mIzUxNDczOyYjNTE2NDg7XyYjNDQxNDQ7JiM0NzAwMDsgJiM0OTg5MjsmIzU0NjY1OyI+PHBhdGggZD0iTTMzOC4wNiwyNjMuODkgQzQwMS4zOSwyNjguNTggNDgyLjI2NjQsMjc0LjU3NzIgNTM3LjI2NjQsMjc4LjY0NzIgIiBmaWxsPSJub25lIiBpZD0iJiM1MTA4ODsmIzQ2MDQxOyAmIzQ0MTQ0OyYjNDcwMDA7ICYjNDk4ODQ7JiM1MTA4OTsvJiM1MTQ3MzsmIzUxNjQ4Oy10by0mIzQ0MTQ0OyYjNDcwMDA7ICYjNDk4OTI7JiM1NDY2NTsiIHN0eWxlPSJzdHJva2U6IzE4MTgxODtzdHJva2Utd2lkdGg6MS4wOyIvPjxwb2x5Z29uIGZpbGw9IiMxODE4MTgiIHBvaW50cz0iNTQzLjI1LDI3OS4wOSw1MzQuNTY5NywyNzQuNDM2Nyw1MzguMjYzNiwyNzguNzIxLDUzMy45NzkzLDI4Mi40MTQ5LDU0My4yNSwyNzkuMDkiIHN0eWxlPSJzdHJva2U6IzE4MTgxODtzdHJva2Utd2lkdGg6MS4wOyIvPjwvZz48IS0tbGluayA/PyA/PyA/Py8/PyB0byBNTCA/PyA/Pz8tLT48ZyBpZD0ibGlua18mIzUxMDg4OyYjNDYwNDE7ICYjNDQxNDQ7JiM0NzAwMDsgJiM0OTg4NDsmIzUxMDg5Oy8mIzUxNDczOyYjNTE2NDg7X01MICYjNDc3ODQ7JiM0NTk0NDsgJiM1MTExNjsmIzU0NjE3OyYjNDk4NDU7Ij48cGF0aCBkPSJNMzAyLjcsMjQxLjQgQzM0OS4xNiwyMjQuMDggNDI0LjQ2LDE5Ni4zOSA0OTAsMTc0IEM1MTEuMDMsMTY2LjgxIDUyOC44Mzk2LDE2MS4wMzAyIDU0OC4zNjk2LDE1NC44NTAyICIgZmlsbD0ibm9uZSIgaWQ9IiYjNTEwODg7JiM0NjA0MTsgJiM0NDE0NDsmIzQ3MDAwOyAmIzQ5ODg0OyYjNTEwODk7LyYjNTE0NzM7JiM1MTY0ODstdG8tTUwgJiM0Nzc4NDsmIzQ1OTQ0OyAmIzUxMTE2OyYjNTQ2MTc7JiM0OTg0NTsiIHN0eWxlPSJzdHJva2U6IzE4MTgxODtzdHJva2Utd2lkdGg6MS4wOyIvPjxwb2x5Z29uIGZpbGw9IiMxODE4MTgiIHBvaW50cz0iNTU0LjA5LDE1My4wNCw1NDQuMzAyNiwxNTEuOTQxNiw1NDkuMzIzLDE1NC41NDg1LDU0Ni43MTYxLDE1OS41Njg5LDU1NC4wOSwxNTMuMDQiIHN0eWxlPSJzdHJva2U6IzE4MTgxODtzdHJva2Utd2lkdGg6MS4wOyIvPjx0ZXh0IGZpbGw9IiMwMDAwMDAiIGZvbnQtZmFtaWx5PSJzYW5zLXNlcmlmIiBmb250LXNpemU9IjEzIiBsZW5ndGhBZGp1c3Q9InNwYWNpbmciIHRleHRMZW5ndGg9Ijg2IiB4PSIzNzMiIHk9IjE4My4yODkxIj4mIzQ3NTg4OyAyNCYjNDk4ODQ7JiM0NDAzNjsmIzQ3NTYwOyYjNDU3OTY7PC90ZXh0PjwvZz48IS0tbGluayA/Pz8gPz8/ID8/Pz8gdG8gPz8gPz8/ID8/Pz8tLT48ZyBpZD0ibGlua18mIzQ5ODkyOyYjNDk4ODQ7JiM0NDAzNjsgJiM0NTkzNjsmIzUxMDYwOyYjNTM1NTI7ICYjNDc3ODQ7JiM0NTc2ODsmIzUzNTUyOyYjNDc1NTM7XyYjNDk4ODQ7JiM1MTEwOTsgJiM0NTkzNjsmIzUxMDYwOyYjNTM1NTI7ICYjNDQwMzI7JiM1MTI1NjsmIzUwNzI0OyYjNDQ1OTI7Ij48cGF0aCBkPSJNNjc5LjI1LDIyMy4yNiBDNzEwLjEsMjI3LjE1IDczOS4xMzcyLDIzMC44MTg4IDc2OS40ODcyLDIzNC42NDg4ICIgZmlsbD0ibm9uZSIgaWQ9IiYjNDk4OTI7JiM0OTg4NDsmIzQ0MDM2OyAmIzQ1OTM2OyYjNTEwNjA7JiM1MzU1MjsgJiM0Nzc4NDsmIzQ1NzY4OyYjNTM1NTI7JiM0NzU1MzstdG8tJiM0OTg4NDsmIzUxMTA5OyAmIzQ1OTM2OyYjNTEwNjA7JiM1MzU1MjsgJiM0NDAzMjsmIzUxMjU2OyYjNTA3MjQ7JiM0NDU5MjsiIHN0eWxlPSJzdHJva2U6IzE4MTgxODtzdHJva2Utd2lkdGg6MS4wOyIvPjxwb2x5Z29uIGZpbGw9IiMxODE4MTgiIHBvaW50cz0iNzc1LjQ0LDIzNS40LDc2Ny4wMTE2LDIzMC4zMDQ3LDc3MC40NzkzLDIzNC43NzQsNzY2LjAxLDIzOC4yNDE3LDc3NS40NCwyMzUuNCIgc3R5bGU9InN0cm9rZTojMTgxODE4O3N0cm9rZS13aWR0aDoxLjA7Ii8+PC9nPjwhLS1saW5rIE1MID8/ID8/Pz8gPz8gPz8gdG8gPz8gPz8/ID8/Pz8tLT48ZyBpZD0ibGlua19NTCAmIzQ3Nzg0OyYjNDU5NDQ7ICYjNDkzMjQ7JiM1MDg1NzsmIzU0NjE2OyYjNTA2Njg7ICYjNDQwMzI7JiM0NDIwMTsgJiM1MDY5NjsmIzUyNzY5O18mIzQ5ODg0OyYjNTExMDk7ICYjNDU5MzY7JiM1MTA2MDsmIzUzNTUyOyAmIzQ0MDMyOyYjNTEyNTY7JiM1MDcyNDsmIzQ0NTkyOyI+PHBhdGggZD0iTTY1OS4wOCw4My42NSBDNjc0LjMxLDg5Ljc2IDY5MC4yMiw5Ny4yNCA3MDQsMTA2IEM3NTcuNzQsMTQwLjE4IDgwNS4yOTAyLDE5MC45NzYgODMwLjg1MDIsMjIwLjQ2NiAiIGZpbGw9Im5vbmUiIGlkPSJNTCAmIzQ3Nzg0OyYjNDU5NDQ7ICYjNDkzMjQ7JiM1MDg1NzsmIzU0NjE2OyYjNTA2Njg7ICYjNDQwMzI7JiM0NDIwMTsgJiM1MDY5NjsmIzUyNzY5Oy10by0mIzQ5ODg0OyYjNTExMDk7ICYjNDU5MzY7JiM1MTA2MDsmIzUzNTUyOyAmIzQ0MDMyOyYjNTEyNTY7JiM1MDcyNDsmIzQ0NTkyOyIgc3R5bGU9InN0cm9rZTojMTgxODE4O3N0cm9rZS13aWR0aDoxLjA7Ii8+PHBvbHlnb24gZmlsbD0iIzE4MTgxOCIgcG9pbnRzPSI4MzQuNzgsMjI1LDgzMS45MDgsMjE1LjU3OTIsODMxLjUwNTIsMjIxLjIyMTcsODI1Ljg2MjcsMjIwLjgxODksODM0Ljc4LDIyNSIgc3R5bGU9InN0cm9rZTojMTgxODE4O3N0cm9rZS13aWR0aDoxLjA7Ii8+PC9nPjwhLS1saW5rID8/ID8/IHRvID8/ID8/PyA/Pz8/LS0+PGcgaWQ9ImxpbmtfJiM0NDE0NDsmIzQ3MDAwOyAmIzQ5ODkyOyYjNTQ2NjU7XyYjNDk4ODQ7JiM1MTEwOTsgJiM0NTkzNjsmIzUxMDYwOyYjNTM1NTI7ICYjNDQwMzI7JiM1MTI1NjsmIzUwNzI0OyYjNDQ1OTI7Ij48cGF0aCBkPSJNNjQ1LjA5LDI3NS45NCBDNjgyLjYsMjcwLjMyIDcyOS44MzY0LDI2My4yNDA0IDc3Mi44MTY0LDI1Ni43OTA0ICIgZmlsbD0ibm9uZSIgaWQ9IiYjNDQxNDQ7JiM0NzAwMDsgJiM0OTg5MjsmIzU0NjY1Oy10by0mIzQ5ODg0OyYjNTExMDk7ICYjNDU5MzY7JiM1MTA2MDsmIzUzNTUyOyAmIzQ0MDMyOyYjNTEyNTY7JiM1MDcyNDsmIzQ0NTkyOyIgc3R5bGU9InN0cm9rZTojMTgxODE4O3N0cm9rZS13aWR0aDoxLjA7Ii8+PHBvbHlnb24gZmlsbD0iIzE4MTgxOCIgcG9pbnRzPSI3NzguNzUsMjU1LjksNzY5LjI1NiwyNTMuMjgsNzczLjgwNTQsMjU2LjY0Miw3NzAuNDQzMywyNjEuMTkxNCw3NzguNzUsMjU1LjkiIHN0eWxlPSJzdHJva2U6IzE4MTgxODtzdHJva2Utd2lkdGg6MS4wOyIvPjwvZz48IS0tbGluayA/Pz9BUEkgdG8gPz8gPz8/ID8/Pz8tLT48ZyBpZD0ibGlua18mIzQ0MTQ0OyYjNDcwMDA7JiM0OTU0ODtBUElfJiM0OTg4NDsmIzUxMTA5OyAmIzQ1OTM2OyYjNTEwNjA7JiM1MzU1MjsgJiM0NDAzMjsmIzUxMjU2OyYjNTA3MjQ7JiM0NDU5MjsiPjxwYXRoIGQ9Ik0zMjQuMzYsNDE1LjM5IEMzNjMuOTgsNDEwLjcgNDE1LjI0LDQwMy4zOSA0NjAsMzkzIEM1NzEuMDQsMzY3LjIzIDU5Ny45NSwzNTUuNzkgNzA0LDMxNCBDNzQyLjkzLDI5OC42NiA3ODAuNzY5MSwyODAuNjc0NiA4MTAuMzA5MSwyNjUuOTY0NiAiIGZpbGw9Im5vbmUiIGlkPSImIzQ0MTQ0OyYjNDcwMDA7JiM0OTU0ODtBUEktdG8tJiM0OTg4NDsmIzUxMTA5OyAmIzQ1OTM2OyYjNTEwNjA7JiM1MzU1MjsgJiM0NDAzMjsmIzUxMjU2OyYjNTA3MjQ7JiM0NDU5MjsiIHN0eWxlPSJzdHJva2U6IzE4MTgxODtzdHJva2Utd2lkdGg6MS4wOyIvPjxwb2x5Z29uIGZpbGw9IiMxODE4MTgiIHBvaW50cz0iODE1LjY4LDI2My4yOSw4MDUuODQwNiwyNjMuNzIxMiw4MTEuMjA0MiwyNjUuNTE4OCw4MDkuNDA2NywyNzAuODgyNCw4MTUuNjgsMjYzLjI5IiBzdHlsZT0ic3Ryb2tlOiMxODE4MTg7c3Ryb2tlLXdpZHRoOjEuMDsiLz48L2c+PCEtLWxpbmsgPz8/QVBJIHRvID8/ID8/LS0+PGcgaWQ9ImxpbmtfJiM0NDE0NDsmIzQ3MDAwOyYjNDk1NDg7QVBJXyYjNDQxNDQ7JiM0NzAwMDsgJiM0OTg5MjsmIzU0NjY1OyI+PHBhdGggZD0iTTMyNC4yMyw0MDEuNjYgQzM2NC4wMywzODguNzMgNDE1LjUyLDM3MC45MSA0NjAsMzUyIEM1MDEuMTgsMzM0LjUgNTQyLjAwMiwzMTIuOTIwMyA1NjguNTYyLDI5OC4zMjAzICIgZmlsbD0ibm9uZSIgaWQ9IiYjNDQxNDQ7JiM0NzAwMDsmIzQ5NTQ4O0FQSS10by0mIzQ0MTQ0OyYjNDcwMDA7ICYjNDk4OTI7JiM1NDY2NTsiIHN0eWxlPSJzdHJva2U6IzE4MTgxODtzdHJva2Utd2lkdGg6MS4wOyIvPjxwb2x5Z29uIGZpbGw9IiMxODE4MTgiIHBvaW50cz0iNTczLjgyLDI5NS40Myw1NjQuMDA2MiwyOTYuMjYwMSw1NjkuNDM4NCwyOTcuODM4Niw1NjcuODU5OSwzMDMuMjcwOCw1NzMuODIsMjk1LjQzIiBzdHlsZT0ic3Ryb2tlOiMxODE4MTg7c3Ryb2tlLXdpZHRoOjEuMDsiLz48L2c+PCEtLVNSQz1bWkxCVklpOUc2Ql9WS3RwaUFZejY0NXJyNE5HUDVGR0FPY08zU1IxczV1N1EyZEU5MllzdGM0RlhuM0dNaDUzUUMtcnl2bnF3UmhDcVhzdGlPZVZsei1feHhMSkI1bmZlMmdYb3ZMQTNTcmFqYnBIUGdHYjJpUUdmQWMzSm52U2ZraHRxNzdxNHJCTm1fbDdleDFZQUxvMTZHSHJsNnluLU9qdFV4bkp1TTFJNFhMWW5MZ2NNR1VHSWo2akpaXzBOcTcybUpUWVQ4eUFyMEZwdmlHNTlhV3ZYWHV3VHcybDRPTFpPNkZEZk9XQ3VxZ2F4MXpHOVppbkNPNjhBSXBudFRWa3hJRmhlclJGbjFrNldBRDIxVFc4U3BmV1UwN3NSS0FGNWx3Wk5zOVE2RGNTdVUwVGNjdDdpNjljVERBNlRkaUpJZEozTE93UTUwbnp1ZHo3ZDVEMWdPSlhFX0JRa2lUdzhHVFpwR3N4TUlXSk5Qd1FEeE5hMTNjM25YX1JzYW9BZXJ3ODZJUlZ2anZ2Yll6cGdUR01wazJFWjQycUlYSzRRQmpWcy1VTk16eV81WXViaHJwY2xzb1JmSl9xdHRtMDBdLS0+PC9nPjwvc3ZnPg==;" vertex="1" parent="1">
            <mxGeometry x="90" y="280" width="962" height="466" as="geometry" />
          </mxCell>
        </UserObject>
      </root>
    </mxGraphModel>
  </diagram>
</mxfile>
